<?xml version="1.0" standalone="no"?>
<!DOCTYPE svg PUBLIC "-//W3C//DTD SVG 20010904//EN"
 "http://www.w3.org/TR/2001/REC-SVG-20010904/DTD/svg10.dtd">
<svg version="1.0" xmlns="http://www.w3.org/2000/svg"
 width="125pt" viewBox="0 0 816.000000 306.000000"
 preserveAspectRatio="xMidYMid meet">
 

<g transform="translate(0.000000,306.000000) scale(0.100000,-0.100000)"
fill="#000000" stroke="none">
<path d="M1635 2924 c-135 -18 -229 -47 -340 -102 -273 -136 -506 -397 -591
-662 l-29 -88 -66 5 c-59 5 -72 3 -116 -22 l-50 -27 -40 20 c-21 11 -56 24
-77 27 l-37 7 3 -47 c3 -45 5 -48 42 -60 55 -19 59 -26 39 -76 -23 -62 -24
-229 0 -283 20 -45 15 -55 -36 -72 -29 -10 -32 -15 -35 -58 l-3 -48 33 7 c18
4 52 17 75 28 39 19 44 20 61 4 28 -26 88 -47 132 -47 36 0 40 -3 40 -24 0
-50 53 -225 95 -314 63 -133 126 -223 233 -334 246 -254 546 -369 819 -312
231 47 388 204 454 450 28 106 31 303 5 424 -22 103 -76 243 -126 327 l-38 61
35 52 c232 345 231 791 -2 1009 -73 68 -152 112 -241 135 -64 16 -190 26 -239
20z m190 -169 c151 -40 251 -139 291 -290 18 -67 17 -245 -1 -324 -26 -110
-114 -301 -138 -301 -5 0 -30 18 -55 41 -63 55 -155 105 -223 119 -39 9 -109
11 -220 7 -171 -6 -275 -19 -519 -67 -80 -15 -147 -26 -149 -24 -3 3 1 37 7
76 36 207 189 441 385 589 206 155 441 221 622 174z m-99 -930 c30 -14 75 -45
101 -69 l47 -43 -54 -42 c-113 -89 -187 -108 -358 -91 -189 19 -618 109 -634
133 -4 6 -3 19 2 28 7 12 51 25 172 47 302 57 434 72 572 67 81 -4 109 -9 152
-30z m294 -327 c105 -219 118 -485 33 -665 -30 -65 -109 -153 -167 -187 -98
-57 -251 -72 -388 -37 -323 83 -619 409 -692 763 -15 72 -22 178 -12 178 3 0
69 -16 148 -35 260 -64 424 -89 604 -89 l161 -1 84 43 c46 23 102 58 124 77
22 19 46 34 53 35 7 0 31 -37 52 -82z"/>
<path d="M4303 2265 c-137 -30 -279 -128 -336 -232 -50 -94 -57 -144 -57 -433
0 -351 14 -405 134 -518 103 -98 235 -142 424 -142 182 0 318 47 416 145 105
104 136 199 136 422 l0 153 -272 -2 -273 -3 0 -85 0 -85 164 -3 164 -3 -8 -72
c-9 -96 -37 -158 -96 -211 -60 -54 -134 -78 -235 -78 -144 1 -250 57 -300 159
l-29 58 0 265 c0 255 1 267 23 314 35 77 65 109 134 147 60 32 68 34 163 34
89 0 106 -3 157 -28 62 -30 122 -90 144 -143 l14 -34 121 0 c139 0 133 -8 78
107 -62 128 -206 235 -364 268 -86 18 -219 18 -302 0z"/>
<path d="M5701 2265 c-136 -30 -267 -119 -328 -223 -57 -97 -63 -139 -63 -446
0 -258 2 -288 20 -342 51 -149 161 -244 341 -294 91 -25 272 -27 368 -5 134
32 267 128 325 234 41 77 56 160 56 324 l0 147 -272 -2 -273 -3 0 -85 0 -85
158 -3 157 -3 0 -62 c0 -92 -24 -152 -84 -212 -62 -62 -135 -88 -241 -88 -141
0 -242 52 -299 153 l-31 55 0 265 c0 308 6 338 81 415 68 70 119 89 239 89 81
0 109 -4 146 -21 64 -29 116 -78 145 -135 l24 -48 119 0 120 0 -8 28 c-77 263
-384 415 -700 347z"/>
<path d="M7102 2265 c-186 -41 -323 -157 -374 -319 -26 -79 -37 -420 -19 -571
26 -219 144 -354 361 -414 93 -26 275 -29 365 -6 205 53 345 196 375 380 13
80 13 463 -1 545 -39 246 -255 401 -554 399 -49 0 -118 -7 -153 -14z m315
-195 c72 -31 137 -102 158 -174 14 -46 16 -98 13 -313 l-3 -258 -29 -53 c-37
-65 -87 -107 -163 -134 -79 -28 -226 -22 -295 11 -61 29 -116 83 -142 140 -20
43 -21 62 -21 321 l0 275 27 51 c59 112 168 167 318 160 59 -2 101 -10 137
-26z"/>
<path d="M2502 1788 c4 -544 3 -536 81 -650 52 -75 139 -138 235 -169 93 -30
310 -38 414 -15 202 45 328 163 367 344 7 35 11 209 11 512 l0 460 -110 0
-110 0 0 -460 c0 -434 -1 -462 -20 -513 -42 -111 -137 -168 -291 -175 -168 -7
-267 39 -324 153 l-30 60 -3 468 -3 467 -110 0 -110 0 3 -482z"/>
</g>
</svg>
